<?xml version="1.0" standalone="no"?>
<!DOCTYPE svg PUBLIC "-//W3C//DTD SVG 20010904//EN"
 "http://www.w3.org/TR/2001/REC-SVG-20010904/DTD/svg10.dtd">
<svg version="1.0" xmlns="http://www.w3.org/2000/svg"
 width="358.000000pt" height="404.000000pt" viewBox="0 0 358.000000 404.000000"
 preserveAspectRatio="xMidYMid meet">
<metadata>
Created by potrace 1.16, written by Peter Selinger 2001-2019
</metadata>
<g transform="translate(0.000000,404.000000) scale(0.100000,-0.100000)"
fill="#000000" stroke="none">
<path d="M2533 3943 c-3 -10 -19 -31 -34 -48 -15 -16 -35 -48 -44 -70 l-17
-40 48 53 c40 46 50 53 73 47 14 -4 34 -9 45 -11 28 -5 29 -7 27 -89 -2 -81
12 -95 24 -25 4 23 12 40 20 40 8 0 16 9 20 19 7 22 2 24 68 -32 13 -11 28
-15 41 -11 19 6 19 5 7 -10 -8 -9 -11 -19 -7 -23 3 -3 6 -1 6 5 0 7 9 12 20
12 19 0 19 0 -1 -34 -29 -50 -45 -60 -96 -59 -40 1 -43 0 -26 -13 10 -7 30
-14 44 -14 27 0 49 -32 49 -70 0 -10 5 -22 11 -26 9 -5 10 4 4 32 -11 53 -9
84 5 98 10 8 12 7 6 -9 -6 -20 -6 -20 9 0 14 17 17 18 26 5 8 -12 9 -10 4 8
-9 32 8 27 23 -7 9 -21 18 -28 29 -24 11 4 14 2 9 -5 -4 -7 0 -15 11 -19 10
-4 20 -9 23 -12 3 -3 20 -14 38 -23 33 -18 62 -15 62 6 0 6 7 24 15 40 18 34
20 30 -25 49 -27 12 -30 16 -14 16 12 1 32 -8 45 -18 21 -17 22 -22 11 -42 -6
-13 -18 -42 -25 -64 -10 -28 -20 -41 -35 -43 -12 -2 -22 -10 -22 -18 0 -8 -4
-14 -10 -14 -5 0 -10 -7 -10 -15 0 -8 -5 -15 -11 -15 -12 0 41 -68 55 -69 4
-1 1 9 -7 22 -14 21 -14 27 0 55 10 21 20 29 31 25 9 -4 13 -2 9 4 -11 18 88
-22 111 -45 11 -11 28 -24 38 -30 16 -9 16 -12 4 -29 -14 -17 -14 -17 6 0 11
9 26 17 32 17 6 0 16 8 21 18 9 15 10 15 11 1 0 -9 -20 -35 -45 -58 -37 -34
-44 -46 -39 -66 3 -14 17 -34 30 -44 32 -25 30 -47 -5 -65 -16 -9 -31 -22 -34
-30 -5 -13 -21 -15 -77 -13 -66 3 -72 5 -90 32 -11 17 -20 25 -20 18 0 -6 5
-15 10 -18 6 -3 10 -15 10 -26 0 -17 7 -19 74 -19 49 0 78 -4 83 -12 14 -22
35 -82 39 -113 4 -24 1 -21 -17 17 -12 27 -26 45 -32 41 -6 -4 -8 0 -4 10 3
10 2 17 -3 17 -6 0 -10 -6 -10 -14 0 -8 -7 -16 -14 -19 -10 -4 -13 -1 -10 7 3
7 -2 13 -11 13 -9 0 -14 -6 -11 -14 4 -9 -5 -13 -32 -13 -30 0 -41 5 -54 27
l-16 27 -18 -37 c-11 -23 -25 -37 -36 -37 -10 0 -18 5 -18 10 0 6 -32 10 -76
10 -44 0 -73 4 -69 9 3 5 -3 12 -14 16 -11 3 -22 14 -24 23 -3 9 -5 -3 -6 -28
-1 -25 -8 -56 -16 -70 -17 -30 -20 -21 -4 13 8 19 7 30 -9 58 -10 19 -24 34
-30 34 -6 0 -18 9 -27 20 l-16 20 9 -20 c5 -11 24 -65 42 -120 49 -150 107
-311 126 -346 12 -25 18 -29 25 -18 7 11 9 11 9 1 0 -7 5 -10 10 -7 6 3 10 -1
10 -9 0 -10 6 -13 15 -10 9 4 15 1 15 -7 0 -7 10 -3 25 11 20 19 25 20 25 7 0
-29 -30 -49 -66 -44 -19 3 -34 1 -34 -4 0 -5 17 -28 38 -51 20 -23 30 -38 22
-33 -12 7 -12 5 1 -11 16 -18 69 -107 158 -262 l42 -73 54 47 c48 41 57 54 81
127 14 45 27 87 29 92 1 6 8 24 15 40 7 17 13 42 14 57 0 14 4 24 9 21 4 -2 8
5 8 16 2 27 3 31 19 63 11 23 11 30 0 43 -11 13 -9 20 13 43 27 28 61 108 52
122 -3 5 -1 10 3 12 8 3 152 435 152 456 0 15 -42 85 -59 98 -8 7 -11 16 -6
24 5 7 4 11 -1 8 -5 -3 -25 7 -44 23 -27 23 -32 31 -21 41 10 11 11 9 5 -7 -4
-11 -4 -17 1 -13 4 4 13 0 20 -9 9 -13 14 -13 20 -3 6 9 4 11 -5 5 -10 -6 -12
-4 -7 9 4 10 3 15 -3 11 -6 -3 -10 -2 -10 4 0 5 -7 17 -16 25 -9 9 -17 22 -18
29 -1 6 -7 22 -14 34 -7 12 -12 26 -11 30 3 18 -2 31 -13 36 -9 3 -14 -10 -16
-41 -4 -58 -12 -74 -32 -62 -10 6 -11 10 -3 10 7 0 10 7 6 16 -4 11 -9 12 -16
5 -18 -18 -25 -13 -19 14 3 17 0 25 -9 25 -8 1 -32 9 -54 20 -22 10 -44 16
-49 13 -5 -4 -7 3 -4 15 6 20 2 22 -38 22 -24 0 -44 5 -44 11 0 5 -4 8 -8 5
-5 -3 -18 3 -29 13 -11 11 -27 19 -34 18 -28 -1 -79 28 -79 45 0 10 5 18 12
18 6 0 9 2 6 5 -4 5 -26 -5 -91 -42 -31 -17 -34 -7 -6 17 l24 21 -25 -12 c-18
-9 -25 -9 -28 0 -2 6 -9 9 -15 5 -7 -3 -4 1 6 9 12 10 15 17 7 22 -6 4 -14 4
-17 1 -3 -3 -14 -1 -24 4 -12 7 -20 7 -24 0 -3 -5 -2 -10 3 -10 6 0 12 -7 15
-14 4 -10 1 -13 -8 -10 -21 9 -28 37 -10 46 17 10 20 34 5 43 -6 3 -7 -1 -4
-9 8 -21 -14 -21 -66 0 -24 10 -53 14 -70 10 -34 -6 -84 9 -75 23 3 6 -4 15
-15 21 -11 6 -18 15 -15 21 4 5 4 9 0 9 -3 0 -8 -8 -12 -17z m574 -1313 c21 0
83 -91 83 -122 0 -19 -4 -28 -12 -25 -7 2 -12 12 -10 21 2 9 -2 24 -8 34 -9
15 -10 14 -5 -5 4 -14 2 -23 -4 -23 -6 0 -11 -8 -12 -17 0 -14 -3 -13 -11 5
-6 12 -16 22 -22 22 -6 0 -5 -5 2 -12 17 -17 15 -48 -3 -48 -20 0 -65 22 -65
32 0 4 -8 16 -18 26 -24 24 -46 78 -38 97 6 17 36 21 36 4 0 -6 8 -8 19 -4 11
3 22 1 26 -5 3 -5 15 -10 26 -10 11 0 17 5 14 10 -3 6 -15 10 -25 10 -10 0
-22 5 -26 12 -5 8 0 9 17 5 13 -4 29 -7 36 -7z"/>
<path d="M1615 3411 c-32 -13 -125 -87 -143 -112 -9 -13 7 -3 36 22 90 81 132
91 285 69 171 -25 358 -77 438 -122 30 -17 39 -30 57 -86 54 -169 51 -330 -9
-497 -35 -96 -110 -218 -144 -233 -41 -19 -290 9 -494 54 -191 43 -424 135
-435 172 -8 24 35 191 69 273 35 87 39 99 19 64 -41 -71 -104 -269 -104 -327
0 -60 102 -107 395 -181 237 -60 348 -79 488 -81 l89 -1 35 40 c19 22 55 82
80 133 56 114 66 182 61 424 -3 149 -6 179 -23 213 -31 63 -71 78 -353 134
-250 50 -308 57 -347 42z"/>
<path d="M1524 3268 c-19 -9 -54 -65 -54 -86 0 -4 17 -8 38 -8 20 0 69 -10
109 -23 77 -24 102 -20 123 19 12 23 -1 34 -102 80 -73 32 -82 34 -114 18z"/>
<path d="M1890 3132 c0 -16 6 -34 13 -40 7 -6 59 -18 115 -26 56 -9 115 -22
131 -31 45 -23 61 -19 76 19 32 76 -11 99 -197 104 l-138 4 0 -30z"/>
<path d="M1507 3118 c-19 -15 -57 -119 -57 -158 0 -32 16 -48 56 -56 22 -4 34
0 47 14 21 23 57 122 57 155 0 47 -63 74 -103 45z"/>
<path d="M1941 3006 c-24 -26 -51 -103 -51 -147 0 -59 91 -81 129 -33 22 29
51 113 51 150 0 52 -89 73 -129 30z"/>
<path d="M1320 2894 l-31 -49 38 -17 c40 -18 50 -38 52 -110 l1 -38 73 0 c72
0 73 -1 112 -40 43 -44 60 -47 144 -29 48 10 53 9 114 -25 35 -20 71 -36 79
-36 8 0 36 22 61 50 40 43 49 49 79 45 101 -13 128 -14 128 -6 0 5 -10 34 -21
65 -24 63 -44 65 -34 4 l7 -41 -71 7 c-39 4 -71 4 -71 -1 0 -4 -18 -28 -39
-53 l-39 -45 -66 34 c-60 30 -71 33 -123 26 -31 -4 -61 -9 -68 -11 -6 -3 -32
13 -57 36 -44 38 -49 40 -111 40 l-65 0 -7 65 c-6 63 -8 66 -41 80 -39 16 -39
16 -18 56 26 51 7 45 -26 -7z"/>
<path d="M297 2308 c-3 -51 -5 -93 -3 -95 4 -4 122 80 174 125 l50 42 11 -32
c18 -57 41 -178 41 -219 0 -21 4 -39 9 -39 17 0 82 84 132 172 28 48 54 90 59
93 5 3 14 -14 21 -37 12 -42 12 -43 21 -16 11 31 -13 88 -37 88 -17 0 -55 -49
-85 -110 -26 -53 -82 -140 -91 -140 -3 0 -9 23 -12 50 -3 28 -14 86 -23 130
-23 105 -34 105 -151 3 l-88 -77 -3 77 c-2 42 -6 77 -11 77 -4 0 -11 -41 -14
-92z"/>
<path d="M3205 2219 c4 -10 -6 -28 -26 -47 l-32 -31 16 -38 c9 -21 24 -90 33
-155 17 -116 17 -116 -5 -171 -25 -61 -105 -139 -201 -197 -30 -19 -64 -40
-74 -49 -18 -15 -19 -15 -13 9 12 49 -4 57 -79 37 -36 -10 -68 -16 -70 -14 -3
2 5 33 15 68 23 71 17 89 -29 89 -37 0 -162 -51 -205 -85 l-35 -26 0 23 c0 13
12 63 26 112 21 70 24 90 13 96 -18 12 -139 -51 -232 -121 -43 -33 -80 -59
-82 -59 -11 0 53 115 133 238 8 12 12 22 9 22 -3 0 -35 -45 -71 -99 -62 -93
-112 -189 -103 -198 3 -2 42 24 88 58 46 34 116 80 156 101 84 46 85 45 52
-64 -11 -39 -19 -89 -17 -114 l3 -45 53 45 c40 35 73 52 134 71 45 13 83 23
86 21 2 -2 -11 -49 -28 -104 -28 -91 -106 -258 -174 -374 -14 -24 -36 -64 -49
-88 -13 -26 -36 -51 -53 -59 -16 -8 -30 -18 -32 -23 -2 -4 -14 -8 -27 -8 -37
0 -39 -17 -2 -29 27 -9 43 -7 90 9 57 20 97 39 107 51 8 9 40 19 40 12 0 -4
-5 -22 -12 -40 -9 -26 -16 -32 -31 -27 -13 4 -17 2 -13 -5 4 -6 2 -11 -4 -11
-6 0 -8 -5 -5 -10 4 -6 1 -17 -5 -25 -9 -11 -9 -15 -1 -15 6 0 11 -9 11 -20 0
-23 0 -23 -37 -9 -48 19 -95 22 -104 7 -7 -11 -11 -10 -19 2 -9 13 -14 7 -11
-12 0 -5 -4 -8 -9 -8 -6 0 -10 -6 -10 -14 0 -8 -7 -21 -15 -29 -13 -14 -19
-13 -54 6 -26 14 -35 24 -28 29 7 5 2 8 -13 8 -20 0 -22 2 -10 10 13 8 12 10
-2 10 -14 0 -18 -9 -18 -40 0 -32 4 -40 18 -39 10 0 12 3 5 6 -7 2 -13 9 -13
13 0 5 19 0 43 -10 23 -11 50 -20 59 -20 9 0 19 -6 21 -12 3 -7 6 -3 6 9 1 13
16 33 36 48 34 27 34 27 79 10 24 -9 49 -14 55 -11 5 4 22 4 37 0 24 -6 26 -9
20 -47 -4 -23 -11 -46 -15 -52 -5 -5 -12 -30 -15 -55 -4 -25 -12 -55 -19 -68
-10 -20 -16 -23 -46 -17 -68 13 -86 29 -109 97 l-20 63 -1 -53 c-1 -33 -5 -51
-11 -47 -5 3 -10 2 -10 -4 0 -5 -3 -16 -6 -25 -4 -11 -1 -16 10 -16 9 0 16 -4
16 -10 0 -5 -9 -10 -20 -10 -12 0 -20 7 -20 18 -1 16 -1 16 -11 -1 -11 -20
-42 -15 -67 9 -25 25 -32 15 -32 -46 l0 -60 40 0 c22 0 40 -4 40 -10 0 -5 5
-10 12 -10 6 0 3 9 -7 20 -24 27 -30 60 -10 60 8 0 15 -5 15 -11 0 -5 5 -7 10
-4 6 3 10 -3 10 -14 0 -30 19 -26 31 7 13 37 56 55 106 44 41 -9 87 -31 66
-32 -6 0 -13 -15 -15 -32 -2 -19 -9 -33 -16 -33 -17 0 -31 -25 -24 -43 3 -10
1 -13 -6 -8 -7 4 -12 1 -12 -8 0 -9 -7 -16 -15 -16 -12 0 -13 -4 -5 -19 14
-27 13 -29 -15 -27 -15 0 -23 6 -21 13 3 7 -4 15 -15 18 -11 4 -25 16 -30 28
-9 20 -9 20 -4 -3 15 -64 17 -100 6 -100 -6 0 -11 -9 -11 -20 0 -14 -7 -20
-21 -20 -16 0 -19 4 -15 16 4 9 0 24 -7 33 -17 19 -38 98 -31 116 3 8 -5 10
-26 7 l-31 -4 2 -89 c2 -49 5 -89 9 -89 3 0 4 -17 2 -38 -4 -41 -13 -35 132
-89 45 -16 75 -22 86 -16 29 14 181 194 174 205 -4 6 -3 8 3 5 6 -4 28 14 49
40 56 68 226 268 287 337 29 32 57 66 63 75 21 30 63 162 57 178 -4 10 -2 14
4 10 6 -4 15 12 22 36 6 23 18 58 26 77 8 19 60 168 115 330 56 162 106 308
112 323 6 15 35 51 65 80 84 82 84 82 63 161 -10 37 -26 73 -36 81 -38 28 -77
48 -69 35 6 -9 3 -10 -14 -1 -11 7 -21 17 -21 24 0 8 -4 6 -10 -3 -9 -13 -11
-13 -20 0 -6 9 -10 10 -10 3 0 -14 -65 10 -93 35 -15 14 -17 14 -12 1z"/>
<path d="M287 1667 c-60 -56 -77 -78 -77 -99 0 -19 -5 -28 -16 -28 -8 0 -25
-5 -36 -11 -17 -9 -18 -13 -7 -20 10 -6 11 -9 2 -9 -7 0 -13 -4 -13 -10 0 -5
11 -10 25 -10 18 0 25 -5 25 -20 0 -13 9 -22 25 -26 14 -3 25 -12 25 -20 0 -8
4 -14 9 -14 5 0 14 -13 21 -30 9 -21 19 -30 36 -30 13 0 24 -4 24 -10 0 -5 -7
-10 -15 -10 -8 0 -15 -5 -15 -11 0 -6 6 -9 13 -6 8 3 20 1 27 -3 11 -7 11 -12
2 -23 -17 -20 -72 -28 -65 -10 3 7 -2 13 -11 13 -9 0 -16 -4 -16 -10 0 -5 -7
-7 -15 -3 -9 3 -13 8 -10 11 3 3 -2 13 -11 23 -8 9 -17 29 -18 44 -2 14 -13
33 -25 41 -12 9 -18 20 -15 26 4 6 3 8 -3 5 -12 -8 -75 58 -65 68 3 3 -1 3
-10 0 -13 -5 -18 1 -21 27 -3 30 -4 29 -5 -9 -2 -35 3 -46 33 -74 18 -18 32
-36 29 -41 -3 -4 3 -5 13 -1 10 3 15 3 11 -2 -4 -4 4 -17 18 -27 15 -13 24
-28 22 -41 -2 -12 3 -22 10 -22 6 0 11 -2 10 -5 -2 -3 15 -22 38 -42 22 -21
83 -79 136 -130 52 -51 134 -129 183 -173 86 -79 90 -81 224 -128 75 -26 147
-46 161 -45 17 2 30 14 42 38 10 20 17 28 18 18 0 -11 5 -15 15 -12 10 4 15 0
15 -16 0 -11 5 -18 10 -15 16 10 12 55 -5 55 -12 0 -15 12 -14 53 1 40 -8 71
-35 134 -20 44 -36 86 -36 91 0 6 13 13 29 17 38 8 55 29 47 58 -3 12 -68 86
-144 164 -132 134 -138 142 -120 157 25 22 23 30 -19 62 -30 22 -34 23 -18 5
16 -19 17 -24 5 -31 -8 -6 -33 -10 -55 -10 l-40 -1 40 -36 c103 -92 174 -167
168 -176 -3 -6 -1 -7 5 -3 6 3 16 0 24 -7 31 -32 83 -101 83 -111 1 -6 7 -10
14 -8 7 1 10 -2 6 -8 -3 -5 -21 -10 -40 -10 -19 0 -36 -4 -39 -8 -5 -9 13 -67
28 -90 7 -12 4 -12 -14 -2 l-22 12 23 -31 c21 -29 21 -31 5 -56 -10 -15 -15
-33 -12 -41 3 -8 1 -14 -4 -14 -5 0 -7 -7 -4 -15 4 -10 0 -15 -11 -15 -10 0
-14 -5 -10 -12 16 -32 -134 134 -274 302 -85 102 -172 203 -193 225 -21 22
-38 44 -38 48 0 5 -9 5 -20 2 -11 -4 -20 -2 -20 4 0 6 -22 22 -50 36 -72 36
-68 56 23 144 94 92 84 90 -16 -2z"/>
<path d="M1520 1303 c-29 -31 -60 -73 -69 -93 -9 -19 -25 -42 -35 -51 -17 -14
-22 -14 -55 1 -73 35 -81 35 -81 -2 0 -18 12 -56 27 -85 21 -40 34 -53 58 -57
23 -5 27 -9 15 -16 -12 -8 -12 -13 3 -44 9 -20 12 -36 7 -36 -6 0 -10 -9 -10
-20 0 -11 7 -20 15 -20 8 0 15 -9 15 -20 0 -12 7 -20 16 -20 12 0 10 -6 -9
-30 -14 -16 -28 -39 -32 -50 -5 -16 -15 -20 -56 -20 -54 0 -54 0 -52 -88 1
-27 -2 -31 -13 -21 -8 6 -14 18 -14 25 0 16 -18 18 -39 5 -12 -8 -175 30 -189
44 -3 3 0 17 7 31 6 15 9 29 7 32 -5 5 -26 -41 -26 -58 0 -4 -35 -16 -77 -25
-42 -10 -84 -21 -92 -25 -9 -5 -25 -11 -36 -15 -18 -6 -19 -7 -3 -16 12 -7 24
-5 41 6 13 8 57 23 98 34 l74 19 66 -34 c36 -19 72 -34 79 -34 9 0 10 -12 6
-43 -3 -23 -6 -49 -7 -57 -1 -8 -6 -20 -10 -26 -6 -7 1 -11 21 -11 16 0 27 4
24 8 -11 18 14 16 42 -2 25 -18 26 -20 5 -14 -36 11 -18 -9 29 -30 30 -14 40
-24 40 -42 0 -18 5 -23 24 -23 31 0 111 -37 150 -69 9 -7 22 -11 30 -8 28 11
5 -21 -23 -33 -22 -9 -36 -7 -75 10 -26 11 -54 20 -61 20 -7 0 -16 6 -18 13
-3 7 -6 5 -6 -5 -1 -15 -4 -16 -28 -3 -16 7 -39 18 -53 23 -14 5 -38 15 -55
22 -16 8 -36 12 -44 11 -7 -1 -24 8 -38 21 -14 13 -26 22 -29 21 -12 -8 -23
-1 -29 18 -4 12 -10 17 -14 12 -8 -14 -185 58 -217 88 -27 25 -33 16 -7 -13
13 -15 14 -25 6 -51 -9 -29 -7 -35 13 -50 12 -9 24 -29 26 -43 2 -21 12 -30
48 -43 25 -10 47 -18 50 -18 5 -1 24 -9 103 -42 26 -11 45 -16 42 -11 -4 6 -1
10 4 10 6 0 11 -6 11 -12 0 -11 549 -238 576 -238 6 0 46 44 90 97 43 53 98
119 122 145 28 33 42 58 42 77 0 24 5 29 29 33 17 2 58 -6 93 -18 49 -18 65
-21 77 -11 12 10 14 9 8 -6 -4 -10 -3 -16 2 -12 5 3 12 1 16 -5 18 -28 25 0
24 98 0 59 2 130 5 157 3 28 8 127 11 221 6 200 6 202 -81 158 -29 -15 -81
-36 -115 -48 -34 -12 -67 -30 -73 -40 -6 -11 -18 -27 -26 -37 -42 -49 -41 -48
-20 -59 11 -6 20 -16 20 -22 0 -6 -8 -4 -18 5 -10 10 -22 17 -26 17 -11 0 -36
-27 -36 -40 0 -6 -7 -13 -16 -17 -9 -3 -14 -13 -11 -24 3 -12 -4 -24 -19 -34
-31 -20 -30 -33 1 -41 27 -7 33 -31 13 -56 -7 -8 -34 -20 -59 -27 -26 -6 -54
-14 -64 -18 -13 -4 -16 -3 -11 5 9 16 -16 16 -32 0 -28 -28 -20 4 14 58 71
112 114 163 166 198 97 65 108 78 127 158 17 72 17 113 0 102 -5 -3 -9 0 -9 6
0 6 -5 8 -11 4 -8 -5 -8 -9 1 -14 33 -20 -27 -145 -70 -145 -29 -1 -90 43 -90
65 0 8 27 44 60 80 70 75 91 123 66 148 -8 9 -17 14 -20 11 -2 -2 -24 -35 -48
-74 -25 -38 -57 -82 -71 -97 -14 -15 -27 -32 -29 -39 -3 -9 -27 3 -72 34 -38
26 -100 64 -140 84 -39 19 -72 37 -74 38 -10 9 49 90 125 173 18 20 32 41 30
46 -8 24 -28 13 -77 -41z"/>
</g>
</svg>
