<?xml version="1.0" standalone="no"?>
<!DOCTYPE svg PUBLIC "-//W3C//DTD SVG 20010904//EN"
 "http://www.w3.org/TR/2001/REC-SVG-20010904/DTD/svg10.dtd">
<svg version="1.0" xmlns="http://www.w3.org/2000/svg"
 width="404.000000pt" height="404.000000pt" viewBox="0 0 404.000000 404.000000"
 preserveAspectRatio="xMidYMid meet">
<metadata>
Created by potrace 1.14, written by Peter Selinger 2001-2017
</metadata>
<g transform="translate(0.000000,404.000000) scale(0.100000,-0.100000)"
fill="#000000" stroke="none">
<path d="M2600 4030 c-19 -5 -84 -11 -145 -15 -60 -4 -135 -10 -165 -15 -30
-5 -93 -12 -140 -15 -47 -4 -92 -8 -100 -10 -8 -2 -51 -6 -95 -10 -107 -8
-291 -68 -338 -109 -19 -17 -82 -73 -140 -124 -58 -51 -107 -98 -109 -104 -2
-6 4 -59 13 -119 10 -59 21 -127 24 -151 5 -37 20 -129 41 -255 3 -18 10 -33
17 -33 7 0 18 -4 26 -9 12 -8 11 -14 -5 -38 -10 -15 -17 -31 -16 -36 1 -4 -7
-16 -18 -27 -11 -11 -20 -17 -20 -14 0 3 -7 -2 -16 -10 -8 -9 -20 -14 -25 -11
-5 4 -9 1 -9 -5 0 -6 -4 -8 -10 -5 -5 3 -10 1 -10 -5 0 -6 -4 -8 -10 -5 -5 3
-10 1 -10 -5 0 -7 -6 -10 -14 -7 -8 3 -17 -1 -20 -8 -3 -9 -12 -12 -22 -8 -12
4 -15 3 -10 -5 7 -11 -7 -16 -41 -15 -7 1 -10 -3 -7 -8 5 -8 -9 -13 -29 -10
-4 0 -7 -4 -7 -10 0 -6 -7 -8 -16 -5 -10 4 -13 2 -8 -6 5 -8 2 -9 -9 -5 -10 3
-17 2 -17 -4 0 -6 -4 -8 -9 -5 -5 4 -11 1 -13 -4 -2 -6 -11 -12 -20 -13 -9 -2
-23 -9 -32 -16 -9 -7 -16 -10 -16 -5 0 5 -4 3 -9 -4 -4 -7 -14 -14 -22 -15 -8
-2 -20 -6 -26 -10 -7 -5 -13 -6 -13 -3 0 3 -9 -3 -20 -14 -12 -12 -25 -18 -30
-15 -6 4 -10 2 -10 -4 0 -6 -10 -15 -21 -22 -17 -9 -20 -8 -14 3 3 7 -1 4 -9
-6 -9 -11 -16 -16 -16 -10 0 5 -5 1 -11 -9 -6 -9 -14 -15 -20 -12 -5 4 -9 1
-9 -5 0 -6 -4 -8 -10 -5 -5 3 -10 1 -10 -6 0 -7 -3 -10 -6 -6 -4 3 -13 -1 -21
-9 -8 -8 -19 -12 -24 -8 -5 3 -8 2 -7 -3 2 -4 0 -8 -3 -8 -4 0 -17 -11 -29
-25 -12 -14 -18 -19 -14 -11 4 8 -25 -19 -65 -60 -40 -41 -70 -67 -66 -59 4 8
-4 3 -17 -11 -13 -14 -32 -28 -41 -32 -9 -3 -17 -13 -17 -22 0 -8 -6 -14 -12
-13 -7 2 -12 -3 -10 -10 1 -8 -2 -11 -7 -8 -30 19 -153 -196 -195 -340 -5 -17
15 -149 39 -250 2 -11 28 -35 56 -52 28 -18 49 -36 47 -40 -7 -18 -148 -132
-162 -132 -12 0 -16 -11 -16 -50 0 -27 4 -50 9 -50 5 0 22 -12 39 -27 16 -16
67 -62 112 -103 101 -92 130 -118 198 -182 53 -50 53 -51 30 -63 -13 -6 -22
-17 -21 -23 2 -7 -3 -11 -10 -9 -6 1 -11 -4 -9 -11 1 -8 -1 -11 -6 -8 -11 6
-52 -30 -52 -46 0 -6 -3 -9 -6 -5 -4 3 -21 -7 -38 -23 -17 -16 -48 -45 -69
-64 -21 -20 -36 -36 -33 -36 3 0 0 -14 -6 -31 -8 -23 -7 -39 5 -67 8 -20 23
-58 32 -85 9 -26 21 -45 26 -41 5 3 9 2 9 -3 0 -7 27 -18 85 -37 6 -2 21 -8
35 -13 14 -6 111 -45 215 -87 105 -42 199 -81 210 -85 11 -5 47 -20 80 -32 33
-13 65 -27 72 -32 7 -5 17 -6 23 -2 5 3 10 1 10 -4 0 -6 5 -11 11 -11 6 0 37
-11 68 -24 51 -22 289 -117 416 -167 28 -11 59 -24 70 -29 11 -5 60 -25 109
-44 83 -33 90 -35 102 -18 6 9 20 27 30 39 11 12 33 38 49 59 17 20 35 42 40
48 77 86 114 136 117 161 3 29 5 30 51 29 26 0 57 -6 70 -11 56 -27 112 -48
119 -46 5 2 8 -6 8 -17 0 -18 6 -22 26 -19 4 0 10 -3 13 -8 7 -11 158 -67 164
-62 2 2 11 -2 20 -10 15 -11 25 -4 86 60 39 40 68 76 65 80 -2 4 4 10 14 13
10 3 25 18 35 33 9 16 34 47 54 70 21 23 54 61 73 84 19 22 46 53 60 69 14 15
34 39 45 51 11 13 56 67 101 120 89 104 88 103 226 514 16 50 33 99 38 110 4
11 18 49 30 85 12 36 24 72 27 80 3 8 7 20 9 25 1 6 21 63 43 129 43 123 39
117 169 252 10 10 10 23 3 51 -6 21 -13 54 -16 73 -3 19 -7 35 -8 35 -1 1 -20
12 -42 26 -22 14 -42 26 -45 25 -3 -1 -19 11 -35 26 -16 15 -32 25 -37 22 -4
-3 -8 -1 -8 4 0 5 -16 17 -35 28 -19 10 -35 23 -35 29 0 6 9 37 21 70 11 32
21 67 22 77 1 10 5 18 9 18 4 0 7 3 6 8 -1 4 11 45 26 92 34 104 40 136 26
145 -7 4 -3 15 13 29 23 21 93 194 82 204 -2 3 -1 10 5 17 5 6 32 83 60 171
28 87 55 167 61 177 7 14 -8 52 -72 175 -45 86 -87 160 -93 164 -6 4 -7 8 -2
8 5 0 1 9 -9 20 -10 11 -26 20 -35 20 -9 0 -20 4 -25 8 -6 5 -37 19 -70 32
-33 13 -66 28 -72 33 -7 5 -13 6 -13 2 0 -5 -8 -1 -17 8 -10 8 -27 17 -38 19
-11 1 -22 5 -25 8 -8 9 -138 62 -146 60 -4 -1 -10 2 -13 7 -3 4 -19 13 -36 20
-16 6 -113 48 -214 92 -194 85 -228 93 -321 71z"/>
<path d="M639 2523 c-13 -16 -12 -17 4 -4 9 7 17 15 17 17 0 8 -8 3 -21 -13z"/>
<path d="M594 2478 l-19 -23 23 19 c21 18 27 26 19 26 -2 0 -12 -10 -23 -22z"/>
</g>
</svg>
